# xmcd
#
# Track frame offsets:
#	150
#	16836
#	56388
#	79404
#	96267
#	117117
#	135341
#	169265
#	184394
#	210526
#	233122
#	251966
#	271813
#	295770
#	324465
#	342827
#
# Disc length: 4831 seconds
#
# Revision: 1
# Processed by: cddbd v1.5.2PL0 Copyright (c) Steve Scherf et al.
# Submitted via: audiograbber 1.83.01
#
DISCID=e212dd10
DTITLE=Various Artist - clearaudio - 40 Years Excellence Edition [HQCD]
DYEAR=2018
DGENRE=Audiophile
TTITLE0=Charly Antolini - Jammin'
TTITLE1=Cameron Carpenter - Toccata and Fuge
TTITLE2=Yelena Eckemoff - Mommy's Shawl
TTITLE3=Brenda Navarrete - Mulata Linda
TTITLE4=Reg Meuross - England Green and England Grey
TTITLE5=Wolfgang Bernreuther's New Experience - Stormy Weather
TTITLE6=Philip Catherine - Transparence
TTITLE7=Thomas Siffling - Just A Little Song From St. Lucia
TTITLE8=Hanne Boel - Broken Angel
TTITLE9=Friedemann - Wing Your Way, Butterfly
TTITLE10=Jacques Loussier - Bolero 7: Prestissimo [Maurice Ravel]
TTITLE11=Charlie McGettigan - Feet Of A Dancer
TTITLE12=Carl Orff - Carmina Burana: O Fortuna
TTITLE13=Sam Yahel and Ari Hoenig and Mike Moreno and Seamus Blake - Us And Them
TTITLE14=Candy Dulfer - Roppongi Panic
TTITLE15=Viviane De Farias - Luminosa (Luminosa Manha)
EXTD=
EXTT0=
EXTT1=
EXTT2=
EXTT3=
EXTT4=
EXTT5=
EXTT6=
EXTT7=
EXTT8=
EXTT9=
EXTT10=
EXTT11=
EXTT12=
EXTT13=
EXTT14=
EXTT15=
PLAYORDER=
